<svg xmlns="http://www.w3.org/2000/svg" viewBox="0 0 64 64" id="vr"><g><circle cx="45" cy="5" r="2" fill="#facf5b"></circle><circle cx="5" cy="43" r="2" fill="#facf5b"></circle><circle cx="39" cy="51" r="2" fill="#facf5b"></circle><path fill="#01cadb" d="M44.048 35.425A8.323 8.323 0 0 0 42.486 19H33.5a2.016 2.016 0 0 0-1.865 1.252L24.51 37.664l-7.122-17.412a2.015 2.015 0 0 0-3.731 1.525l8.988 21.971a2.015 2.015 0 0 0 3.73 0l8.476-20.719h7.635a4.273 4.273 0 0 1 0 8.525h-3a2.015 2.015 0 0 0-1.457 3.406l8.988 9.416a2.014 2.014 0 0 0 2.914-2.782Z"></path><g fill="#1e120b"><path d="M45 8a3 3 0 1 0-3-3 3 3 0 0 0 3 3Zm0-4a1 1 0 1 1-1 1 1 1 0 0 1 1-1Z"></path><circle cx="30.787" cy="32.905" r="1"></circle><path d="M5 46a3 3 0 1 0-3-3 3 3 0 0 0 3 3zm0-4a1 1 0 1 1-1 1 1 1 0 0 1 1-1zm31 9a3 3 0 1 0 3-3 3 3 0 0 0-3 3zm4 0a1 1 0 1 1-1-1 1 1 0 0 1 1 1zm11.493-23.708A9.163 9.163 0 0 0 42.486 18H33.5a3.006 3.006 0 0 0-2.791 1.873l-6.2 15.149-6.2-15.149a3.015 3.015 0 0 0-5.582 2.283l8.988 21.971a3.015 3.015 0 0 0 5.581 0l2.951-7.2a1 1 0 1 0-1.85-.758l-2.952 7.2a1.021 1.021 0 0 1-1.879 0L14.583 21.4a1.015 1.015 0 1 1 1.879-.767l7.122 17.412a1.008 1.008 0 0 0 1.852 0l7.123-17.412A1.009 1.009 0 0 1 33.5 20h8.988a7.162 7.162 0 0 1 7.007 7.292 7.239 7.239 0 0 1-5.646 7.154 1.008 1.008 0 0 0-.523 1.67l5.888 6.169a1.016 1.016 0 0 1-.034 1.435 1.039 1.039 0 0 1-1.433-.034l-8.99-9.416a1.02 1.02 0 0 1 .733-1.715h3a5.271 5.271 0 0 0 0-10.526h-7.639a1 1 0 0 0-.928.628l-2.517 6.274a1 1 0 0 0 1.856.744l2.265-5.646h6.959a3.277 3.277 0 0 1 0 6.526h-3a3.013 3.013 0 0 0-2.18 5.095l8.994 9.415a3.014 3.014 0 1 0 4.359-4.165l-4.777-5a9.326 9.326 0 0 0 5.611-8.608z"></path><circle cx="57" cy="57" r="1"></circle><circle cx="53" cy="57" r="1"></circle><circle cx="49" cy="57" r="1"></circle><circle cx="15" cy="7" r="1"></circle><circle cx="11" cy="7" r="1"></circle><circle cx="7" cy="7" r="1"></circle><path d="M3 12a1 1 0 0 0 1-1V4h7a1 1 0 0 0 0-2H3a1 1 0 0 0-1 1v8a1 1 0 0 0 1 1zm0 50h8a1 1 0 0 0 0-2H4v-7a1 1 0 0 0-2 0v8a1 1 0 0 0 1 1zm50 0h8a1 1 0 0 0 1-1v-8a1 1 0 0 0-2 0v7h-7a1 1 0 0 0 0 2zm9-59a1 1 0 0 0-1-1h-8a1 1 0 0 0 0 2h7v7a1 1 0 0 0 2 0zM21 58a1 1 0 0 0 1-1v-1h1a1 1 0 0 0 0-2h-1v-1a1 1 0 0 0-2 0v1h-1a1 1 0 0 0 0 2h1v1a1 1 0 0 0 1 1zm40-38h-1v-1a1 1 0 0 0-2 0v1h-1a1 1 0 0 0 0 2h1v1a1 1 0 0 0 2 0v-1h1a1 1 0 0 0 0-2zM27 8a1 1 0 0 0-1 1v1h-1a1 1 0 0 0 0 2h1v1a1 1 0 0 0 2 0v-1h1a1 1 0 0 0 0-2h-1V9a1 1 0 0 0-1-1z"></path></g></g></svg>